<?xml version="1.0" encoding="iso-8859-1"?>
<!-- Generator: Adobe Illustrator 19.0.0, SVG Export Plug-In . SVG Version: 6.00 Build 0)  -->
<svg xmlns="http://www.w3.org/2000/svg" xmlns:xlink="http://www.w3.org/1999/xlink" version="1.1" id="Layer_1" x="0px" y="0px" viewBox="0 0 512 512" style="enable-background:new 0 0 512 512;" xml:space="preserve">
<circle style="fill:#FF5722;" cx="256" cy="256" r="256"/>
<path style="fill:#FFE4DE;" d="M382.417,368.766L279.682,216.939l27.518-54.03H204.8l27.518,54.03L129.583,368.766  c-4.762,7.14-5.208,16.328-1.159,23.892c4.049,7.568,11.939,12.288,20.522,12.288H256h107.055c8.583,0,16.472-4.72,20.522-12.293  C387.626,385.089,387.179,375.906,382.417,368.766z"/>
<path style="fill:#FFFFFF;" d="M204.8,162.909l27.518,54.03L129.583,368.766c-4.762,7.14-5.208,16.328-1.159,23.892  c4.049,7.568,11.939,12.288,20.522,12.288H256V162.909H204.8z"/>
<path style="fill:#D22600;" d="M353.825,361.281l-19.772-29.654h-20.461c0-8.257-8.993-13.629-16.319-9.263  c-2.709-5.185-8.071-8.765-14.327-8.765c-9.211,0-17.175,7.829-16.04,18.027h-89.111l-19.773,29.654  c-3.686,5.53-4.035,12.646-0.894,18.511c3.137,5.865,9.244,9.519,15.895,9.519h165.809c6.647,0,12.753-3.654,15.891-9.519  C357.855,373.928,357.511,366.815,353.825,361.281z"/>
<path style="fill:#FF2F00;" d="M241.306,331.627c1.145-8.029-5.078-14.42-12.437-14.42c-5.86,0-10.743,4.008-12.162,9.43  c-5.274-4.557-13.331-1.708-14.694,4.985h-24.218l-19.773,29.654c-3.686,5.53-4.035,12.646-0.894,18.511  c3.137,5.865,9.244,9.519,15.895,9.519h82.884v-57.679H241.306z"/>
<g>
	<circle style="fill:#FFFFFF;" cx="229.609" cy="134.982" r="9.309"/>
	<circle style="fill:#FFFFFF;" cx="341.318" cy="172.218" r="9.309"/>
</g>
<circle style="fill:#D22600;" cx="283.927" cy="293.236" r="9.309"/>
<circle style="fill:#FFFFFF;" cx="313.391" cy="125.673" r="18.618"/>
<circle style="fill:#FF2F00;" cx="228.073" cy="283.927" r="18.618"/>
<g>
</g>
<g>
</g>
<g>
</g>
<g>
</g>
<g>
</g>
<g>
</g>
<g>
</g>
<g>
</g>
<g>
</g>
<g>
</g>
<g>
</g>
<g>
</g>
<g>
</g>
<g>
</g>
<g>
</g>
</svg>
