<?xml version="1.0" encoding="iso-8859-1"?>
<!-- Generator: Adobe Illustrator 19.0.0, SVG Export Plug-In . SVG Version: 6.00 Build 0)  -->
<svg xmlns="http://www.w3.org/2000/svg" xmlns:xlink="http://www.w3.org/1999/xlink" version="1.1" id="Layer_1" x="0px" y="0px" viewBox="0 0 512 512" style="enable-background:new 0 0 512 512;" xml:space="preserve">
<path style="fill:#F3F3F3;" d="M429.867,338.133C429.867,434.133,352,512,256,512S82.133,434.133,82.133,338.133  C82.133,272,118.4,214.4,172.8,185.6V43.733h165.333V185.6C392.533,215.467,429.867,272,429.867,338.133z"/>
<rect x="172.8" y="43.733" style="fill:#E8EAE9;" width="165.333" height="26.667"/>
<path style="fill:#F3F3F3;" d="M339.2,51.2H172.8c-13.867,0-25.6-11.733-25.6-25.6S158.933,0,172.8,0h165.333  c13.867,0,25.6,11.733,25.6,25.6S353.067,51.2,339.2,51.2z"/>
<g>
	<path style="fill:#F3705A;" d="M139.733,280.533c-8.533,17.067-12.8,36.267-12.8,56.533c0,71.467,57.6,130.133,130.133,130.133   S387.2,409.6,387.2,337.067c0-20.267-4.267-39.467-12.8-56.533H139.733z"/>
	<circle style="fill:#F3705A;" cx="234.667" cy="218.667" r="23.467"/>
	<circle style="fill:#F3705A;" cx="291.2" cy="116.267" r="18.133"/>
</g>
<g>
	<circle style="fill:#FFFFFF;" cx="308.267" cy="398.933" r="23.467"/>
	<circle style="fill:#FFFFFF;" cx="194.133" cy="380.8" r="10.667"/>
</g>
<g>
</g>
<g>
</g>
<g>
</g>
<g>
</g>
<g>
</g>
<g>
</g>
<g>
</g>
<g>
</g>
<g>
</g>
<g>
</g>
<g>
</g>
<g>
</g>
<g>
</g>
<g>
</g>
<g>
</g>
</svg>
