<?xml version="1.0" encoding="iso-8859-1"?>
<!-- Generator: Adobe Illustrator 19.0.0, SVG Export Plug-In . SVG Version: 6.00 Build 0)  -->
<svg version="1.1" id="Layer_1" xmlns="http://www.w3.org/2000/svg" xmlns:xlink="http://www.w3.org/1999/xlink" x="0px" y="0px"
	 viewBox="0 0 512 512" style="enable-background:new 0 0 512 512;" xml:space="preserve">
<path style="fill:#64B4D8;" d="M189.093,471.866H18.507c-3.428,0-6.205-2.779-6.205-6.205V341.046h176.792v130.82H189.093z"/>
<path style="fill:#71C5F4;" d="M189.093,464.499H18.507c-3.428,0-6.205-2.779-6.205-6.205V333.679h176.792v130.82H189.093z"/>
<rect x="20.125" y="400.922" style="fill:#E0C8A2;" width="174.198" height="55.015"/>
<path style="fill:#F9C573;" d="M111.941,267.237h-1.412v-40.249c23.333-1.392,45.08-11.124,61.748-27.792l-8.224-8.224
	c-32.719,32.72-85.958,32.719-118.677,0c-15.85-15.85-24.579-36.923-24.579-59.338s8.729-43.488,24.579-59.338l-8.224-8.224
	c-18.048,18.047-27.987,42.04-27.987,67.562s9.939,49.516,27.985,67.562c16.668,16.668,38.414,26.4,61.747,27.792v40.249h-1.412
	c-9.635,0-17.447,7.811-17.447,17.447h49.348C129.387,275.048,121.576,267.237,111.941,267.237z"/>
<path style="fill:#B3B3B3;" d="M186.946,218.518c-1.489,0-2.976-0.568-4.113-1.703L29.013,62.995c-2.272-2.272-2.272-5.954,0-8.224
	c2.272-2.27,5.953-2.27,8.224,0l153.82,153.82c2.272,2.272,2.272,5.954,0,8.224C189.922,217.951,188.434,218.518,186.946,218.518z"
	/>
<g>
	<path style="fill:#E0B394;" d="M179.98,236.166c-14.422-0.64-25.902-12.538-25.902-27.112c0-14.981,12.143-27.135,27.135-27.135
		c1.349,0,2.675,0.093,3.978,0.291"/>
	<path style="fill:#E0B394;" d="M419.758,236.166c14.422-0.64,25.914-12.538,25.914-27.112c0-14.981-12.154-27.135-27.147-27.135
		c-1.349,0-2.687,0.105-3.978,0.291"/>
</g>
<circle style="fill:#71C5F4;" cx="104.714" cy="131.629" r="68.158"/>
<path style="fill:#FCE8CA;" d="M153.289,309.12c-12.736,0-23.053,10.328-23.053,23.053c0-9.142-5.327-17.051-13.062-20.773
	c-3.024-1.466-6.409-2.28-9.991-2.28H20.125v116.438h79.742c6.432,0,12.399,2.001,17.307,5.42
	c7.897,5.478,13.062,14.609,13.062,24.949c0-16.772,13.597-30.369,30.369-30.369h79.742v-11.387V309.12H153.289z"/>
<g>
	<rect x="163.835" y="333.683" style="fill:#4D4D4D;" width="58.353" height="12.794"/>
	<rect x="163.835" y="390.64" style="fill:#4D4D4D;" width="58.353" height="12.794"/>
	<rect x="163.835" y="362.155" style="fill:#4D4D4D;" width="58.353" height="12.794"/>
</g>
<path style="fill:#64B4D8;" d="M104.718,199.791c-37.65,0-68.158-30.52-68.158-68.158s30.508-68.158,68.158-68.158
	c-21.552,0-39.022,30.52-39.022,68.158S83.165,199.791,104.718,199.791z"/>
<path style="fill:#E6E6E6;" d="M426.653,406.402v105.586H173.097V406.402c0-35.312,25.449-64.68,59.004-70.763
	c1.058-0.198,2.117-0.361,3.199-0.5c3.175-0.442,6.432-0.663,9.735-0.663h109.692c3.292,0,6.537,0.221,9.712,0.663
	c1.07,0.14,2.14,0.302,3.199,0.5C401.193,341.71,426.653,371.079,426.653,406.402z"/>
<g>
	<rect x="292.893" y="354.002" style="fill:#CCCCCC;" width="13.957" height="157.996"/>
	<path style="fill:#CCCCCC;" d="M364.439,335.139l-12.806,67.716l-51.77-25.518l-51.758,25.518l-12.806-67.716
		c3.175-0.442,6.432-0.663,9.735-0.663h109.692C358.018,334.476,361.263,334.697,364.439,335.139z"/>
	<path style="fill:#CCCCCC;" d="M289.352,334.471h-44.321c-39.727,0-71.933,32.205-71.933,71.933v105.588h44.321V406.405
		C217.42,366.676,249.625,334.471,289.352,334.471z"/>
</g>
<path style="fill:#F7CBA4;" d="M386.875,318.762l-47.745,34.684c-23.413,17.005-55.108,17.005-78.509,0l-47.745-34.684
	c-25.228-18.331-38.883-48.653-35.882-79.684l4.641-48.048l1.628-16.784l2.012-20.866c5.699-59.027,55.306-104.063,114.6-104.063
	c29.647,0,56.876,11.259,77.393,29.892c20.529,18.645,34.358,44.663,37.208,74.171l2.233,23.053v0.012l1.617,16.784l4.431,45.85
	C425.757,270.11,412.102,300.432,386.875,318.762z"/>
<path style="fill:#E8BA97;" d="M206.706,255.962c-0.803,13.573,3.617,26.926,12.364,37.336l49.901,61.319
	c2.605,3.105,5.56,5.711,8.758,7.793c-6.002-2.094-11.771-5.094-17.109-8.967l-47.745-34.684
	c-25.228-18.331-38.871-48.641-35.87-79.684l8.27-85.697c5.653-58.446,54.34-103.179,112.879-104.028
	c-36.056,0.872-76.885,34.858-79.013,71.054L206.706,255.962z"/>
<g>
	<circle style="fill:#C0E7F9;" cx="247.904" cy="223.793" r="33.205"/>
	<path style="fill:#C0E7F9;" d="M385.037,223.795c0,18.33-14.876,33.195-33.207,33.195c-3.547,0-6.967-0.558-10.165-1.582
		c-13.364-4.292-23.041-16.83-23.041-31.613c0-18.342,14.864-33.207,33.207-33.207c3.722,0,7.293,0.616,10.631,1.745
		C375.581,196.765,385.037,209.175,385.037,223.795z"/>
</g>
<g>
	<path style="fill:#E6F6FC;" d="M385.037,223.795c0,18.33-14.876,33.195-33.207,33.195c-3.547,0-6.967-0.558-10.165-1.582
		l20.796-63.075C375.581,196.765,385.037,209.175,385.037,223.795z"/>
	<path style="fill:#E6F6FC;" d="M281.114,223.795c0,18.33-14.876,33.195-33.207,33.195c-3.547,0-6.967-0.558-10.166-1.582
		l20.796-63.075C271.658,196.765,281.114,209.175,281.114,223.795z"/>
</g>
<path style="fill:#E0B394;" d="M313.249,223.79v32.513c0,7.387-5.989,13.376-13.376,13.376l0,0c-7.387,0-13.376-5.989-13.376-13.376
	V223.79"/>
<path style="fill:#AF7C38;" d="M428.979,193.554c-62.808-102.353-96.538-53.503-130.267-53.503c-7.77,0-14.934-1.047-21.459-2.768
	c-30.578-8.049-47.164-30.962-47.164-30.962c0,30.241-47.594,75.834-47.594,75.834C126.759,52.121,243.883,35.303,243.883,35.303
	c9.2-20.994,38.15-36.591,73.322-35.219c12.631,0.477,26.053,3.14,39.662,8.537C480.156,57.472,428.979,193.554,428.979,193.554z"/>
<path style="fill:#9B6C34;" d="M277.252,137.284c-30.578-8.049-47.164-30.962-47.164-30.962c0,30.241-47.594,75.834-47.594,75.834
	C126.759,52.121,243.883,35.303,243.883,35.303c9.2-20.994,38.15-36.591,73.322-35.219
	C315.321,0.817,240.743,30.615,277.252,137.284z"/>
<path style="fill:#666666;" d="M418.325,193.229l-1.617-16.784l-27.742,35.39c-5.062-15.684-19.794-27.064-37.14-27.064
	c-19.54,0-35.769,14.438-38.586,33.205h-26.747c-2.817-18.768-19.046-33.205-38.586-33.205c-16.704,0-30.986,10.554-36.54,25.342
	l-28.106-35.865l-1.628,16.784l27.311,34.847c1.089,20.55,18.148,36.934,38.964,36.934c19.54,0,35.769-14.438,38.586-33.205h26.747
	c2.817,18.768,19.046,33.205,38.586,33.205c19.854,0,36.281-14.909,38.701-34.117L418.325,193.229z M247.908,251.18
	c-15.103,0-27.39-12.287-27.39-27.39c0-15.103,12.287-27.39,27.39-27.39c15.103,0,27.39,12.287,27.39,27.39
	C275.298,238.893,263.011,251.18,247.908,251.18z M351.826,251.18c-15.103,0-27.39-12.287-27.39-27.39
	c0-15.103,12.287-27.39,27.39-27.39s27.39,12.287,27.39,27.39C379.216,238.893,366.929,251.18,351.826,251.18z"/>
<path style="fill:#E0AD86;" d="M502.836,329.393v166.905c0,8.672-7.03,15.702-15.702,15.702l0,0c-8.672,0-15.702-7.03-15.702-15.702
	V329.393l5.412-236.18c0.123-5.367,4.196-9.997,9.55-10.371c5.913-0.414,10.888,4.184,11.022,10.012L502.836,329.393z"/>
<path style="fill:#D68C5B;" d="M502.836,356.145v140.154c0,8.672-7.03,15.702-15.702,15.702l0,0c-8.672,0-15.702-7.03-15.702-15.702
	V356.145H502.836z"/>
<g>
	<rect x="42.876" y="333.683" style="fill:#4D4D4D;" width="58.353" height="12.794"/>
	<rect x="42.876" y="390.64" style="fill:#4D4D4D;" width="58.353" height="12.794"/>
	<rect x="42.876" y="362.155" style="fill:#4D4D4D;" width="58.353" height="12.794"/>
</g>
<rect x="343.488" y="466.241" style="fill:#CCCCCC;" width="56.992" height="17.447"/>
<g>
	<circle style="fill:#666666;" cx="276.516" cy="418.717" r="7.72"/>
	<circle style="fill:#666666;" cx="276.516" cy="455.564" r="7.72"/>
	<circle style="fill:#666666;" cx="276.516" cy="492.411" r="7.72"/>
</g>
<path style="fill:#F2F2F2;" d="M331.798,294.849c0,0-0.466,1.145-1.447,2.952c-0.237,0.466-0.515,0.957-0.826,1.489
	c-0.368,0.523-0.793,1.055-1.251,1.652c-0.458,0.597-0.982,1.203-1.538,1.873c-0.197,0.254-0.409,0.466-0.637,0.687
	c-0.081,0.081-0.172,0.164-0.262,0.245c-0.319,0.294-0.646,0.605-0.982,0.915c-0.671,0.629-1.398,1.251-2.159,1.905
	c-0.801,0.589-1.66,1.145-2.544,1.75c-0.442,0.302-0.899,0.597-1.366,0.891c-0.466,0.278-0.965,0.507-1.472,0.761
	c-0.998,0.507-2.037,0.998-3.108,1.489c-2.208,0.753-4.506,1.635-6.959,2.004c-2.42,0.564-4.948,0.654-7.466,0.777
	c-2.518-0.122-5.046-0.205-7.466-0.769c-2.453-0.368-4.751-1.251-6.959-2.004c-1.071-0.483-2.11-0.974-3.116-1.481
	c-0.499-0.254-0.998-0.483-1.473-0.761c-0.458-0.302-0.915-0.589-1.357-0.891c-0.883-0.605-1.75-1.169-2.552-1.75
	c-0.761-0.654-1.481-1.284-2.159-1.905c-0.335-0.319-0.654-0.621-0.974-0.923c-0.114-0.106-0.229-0.213-0.343-0.319
	c-0.197-0.197-0.384-0.384-0.548-0.605c-0.532-0.646-1.047-1.243-1.497-1.832c-0.442-0.597-0.875-1.12-1.235-1.643
	c-0.327-0.556-0.629-1.063-0.883-1.529c-1.022-1.864-1.447-2.976-1.447-2.976s1.211,0.368,3.075,1.12
	c0.475,0.18,0.965,0.4,1.513,0.621c0.58,0.172,1.177,0.393,1.816,0.605c0.646,0.213,1.292,0.475,1.978,0.72
	c0.679,0.262,1.447,0.434,2.208,0.663c0.761,0.221,1.521,0.491,2.315,0.728c0.826,0.18,1.652,0.392,2.502,0.597
	c0.426,0.098,0.842,0.221,1.268,0.335c0.434,0.098,0.883,0.156,1.325,0.245c0.891,0.156,1.783,0.335,2.674,0.54
	c1.856,0.172,3.688,0.58,5.602,0.654c1.889,0.245,3.818,0.18,5.733,0.294c1.921-0.114,3.852-0.041,5.741-0.286
	c1.913-0.065,3.745-0.483,5.602-0.654c0.891-0.197,1.783-0.376,2.674-0.532c0.442-0.09,0.891-0.148,1.325-0.245
	c0.426-0.122,0.85-0.237,1.268-0.335c0.85-0.205,1.676-0.426,2.502-0.597c0.801-0.237,1.562-0.507,2.323-0.728
	c0.753-0.229,1.538-0.409,2.191-0.662c0.671-0.229,1.3-0.483,1.938-0.679c0.629-0.213,1.219-0.426,1.799-0.597
	c0.572-0.245,1.079-0.483,1.562-0.671C330.613,295.193,331.798,294.849,331.798,294.849z"/>
<path style="fill:#4D4D4D;" d="M326.099,303.501c-0.081,0.081-0.172,0.164-0.262,0.245c-0.319,0.294-0.646,0.605-0.982,0.915
	c-0.671,0.629-1.398,1.251-2.159,1.905c-0.801,0.589-1.66,1.145-2.544,1.75c-0.442,0.302-0.899,0.597-1.366,0.891
	c-0.466,0.278-0.965,0.507-1.472,0.761c-0.998,0.507-2.037,0.998-3.108,1.489c-2.208,0.753-4.506,1.635-6.959,2.004
	c-2.42,0.564-4.948,0.654-7.466,0.777c-2.518-0.122-5.046-0.205-7.466-0.769c-2.453-0.368-4.751-1.251-6.959-2.004
	c-1.071-0.483-2.11-0.974-3.116-1.481c-0.499-0.254-0.998-0.483-1.473-0.761c-0.458-0.302-0.915-0.589-1.357-0.891
	c-0.883-0.605-1.75-1.169-2.552-1.75c-0.761-0.654-1.481-1.284-2.159-1.905c-0.335-0.319-0.654-0.621-0.974-0.923
	c-0.114-0.106-0.229-0.213-0.343-0.319c0.262,0.09,0.523,0.18,0.793,0.27c0.646,0.213,1.292,0.466,1.978,0.712
	c0.679,0.27,1.447,0.442,2.208,0.671c0.761,0.221,1.521,0.483,2.315,0.728c0.826,0.172,1.652,0.392,2.502,0.597
	c0.426,0.098,0.842,0.213,1.268,0.327c0.434,0.098,0.883,0.156,1.325,0.245c0.891,0.156,1.783,0.343,2.674,0.54
	c1.856,0.18,3.688,0.589,5.602,0.655c1.889,0.254,3.818,0.18,5.733,0.302c1.921-0.114,3.852-0.041,5.741-0.294
	c1.913-0.065,3.745-0.475,5.602-0.646c0.891-0.197,1.783-0.384,2.674-0.54c0.442-0.09,0.891-0.148,1.325-0.245
	c0.426-0.114,0.85-0.229,1.268-0.327c0.85-0.205,1.676-0.426,2.502-0.597c0.801-0.245,1.562-0.515,2.323-0.728
	c0.753-0.229,1.538-0.418,2.191-0.662c0.671-0.237,1.3-0.483,1.938-0.687C325.6,303.674,325.854,303.583,326.099,303.501z"/>
<g>
	<path style="fill:#EDD9BE;" d="M130.236,332.173v123.754c0-10.34-5.164-19.47-13.062-24.949V311.4
		C124.909,315.122,130.236,323.031,130.236,332.173z"/>
	<path style="fill:#EDD9BE;" d="M130.236,332.173v123.754c0-10.34,5.164-19.47,13.062-24.949V311.4
		C135.563,315.122,130.236,323.031,130.236,332.173z"/>
</g>
<g>
	<circle style="fill:#808080;" cx="351.827" cy="223.793" r="8.432"/>
	<circle style="fill:#808080;" cx="247.904" cy="223.793" r="8.432"/>
</g>
<g>
</g>
<g>
</g>
<g>
</g>
<g>
</g>
<g>
</g>
<g>
</g>
<g>
</g>
<g>
</g>
<g>
</g>
<g>
</g>
<g>
</g>
<g>
</g>
<g>
</g>
<g>
</g>
<g>
</g>
</svg>
