<?xml version="1.0" encoding="iso-8859-1"?>
<!-- Generator: Adobe Illustrator 19.0.0, SVG Export Plug-In . SVG Version: 6.00 Build 0)  -->
<svg version="1.1" id="Layer_1" xmlns="http://www.w3.org/2000/svg" xmlns:xlink="http://www.w3.org/1999/xlink" x="0px" y="0px"
	 viewBox="0 0 512 512" style="enable-background:new 0 0 512 512;" xml:space="preserve">
<circle style="fill:#F9C573;" cx="52.804" cy="238.774" r="22.306"/>
<circle style="fill:#F76B4F;" cx="18.705" cy="186.543" r="15.453"/>
<circle style="fill:#90BC42;" cx="462.112" cy="206.065" r="15.453"/>
<rect x="409.315" y="270.157" style="fill:#C0E7F9;" width="46.232" height="55.381"/>
<rect x="409.315" y="270.157" style="fill:#B2DBEA;" width="13.414" height="55.381"/>
<circle style="fill:#C0E7F9;" cx="432.391" cy="394.003" r="76.357"/>
<path style="fill:#B2DBEA;" d="M388.885,394.007c0-42.171,19.479-76.356,43.509-76.356c-42.171,0-76.356,34.185-76.356,76.356
	s34.185,76.356,76.356,76.356C408.364,470.362,388.885,436.177,388.885,394.007z"/>
<path style="fill:#90BC42;" d="M508.197,407.064c-6.196,35.952-37.532,63.296-75.249,63.296c-0.427,0-0.854,0-1.281-0.012
	c-0.138,0-0.265-0.012-0.392-0.012c-41.398-0.888-74.684-34.717-74.684-76.334c0-2.538,0.127-5.042,0.369-7.511
	c16.13,1.465,22.083,11.249,32.294,17.537c5.03,3.104,11.088,5.354,19.891,5.354c28.198,0,28.198-23.076,56.408-23.076
	C488.225,386.308,492.667,401.214,508.197,407.064z"/>
<path style="fill:#C0E7F9;" d="M77.054,321.488v162.556c0,7.061-2.861,13.465-7.488,18.091c-4.627,4.627-11.019,7.488-18.091,7.488
	c-14.122,0-25.579-11.445-25.579-25.579V321.488H77.054z"/>
<path style="fill:#B2DBEA;" d="M40.894,484.044V321.488H25.895v162.556c0,14.134,11.457,25.579,25.579,25.579
	c2.612,0,5.131-0.392,7.503-1.118C48.512,505.301,40.894,495.568,40.894,484.044z"/>
<path style="fill:#83A538;" d="M431.275,470.337c-41.398-0.888-74.684-34.717-74.684-76.334c0-2.538,0.127-5.042,0.369-7.511
	c16.13,1.465,22.083,11.249,32.294,17.537C392.012,440.823,409.688,469.379,431.275,470.337z"/>
<path style="fill:#C2DB8D;" d="M425.875,113.359c0,19.51-12.195,36.159-29.387,42.759c4.384,5.111,7.026,11.745,7.026,19.003
	c0,9.53-4.557,17.987-11.607,23.318c-4.592-8.273-283.321-8.273-287.913,0c-7.061-5.33-11.619-13.788-11.619-23.318
	c0-7.257,2.654-13.891,7.027-19.003c-17.18-6.6-29.387-23.249-29.387-42.759c0-24.391,19.06-44.317,43.082-45.724
	c-0.069-1.165-0.115-2.342-0.115-3.531c0-31.717,25.718-57.435,57.447-57.435c14.872,0,28.429,5.654,38.64,14.93
	C217.157,8.642,231.545,0,247.951,0s30.794,8.642,38.882,21.599c10.199-9.276,23.756-14.93,38.64-14.93
	c31.717,0,57.435,25.718,57.435,57.435c0,1.188-0.046,2.365-0.115,3.531C406.826,69.042,425.875,88.968,425.875,113.359z"/>
<path style="fill:#B5C981;" d="M159.664,188.816c9.602-3.034-26.562-27.587-22.189-32.698c-17.18-6.6-29.387-23.249-29.387-42.759
	c0-24.391,19.06-44.317,43.082-45.724c-0.069-1.165-0.115-2.342-0.115-3.531c0-25.047,16.044-46.34,38.416-54.194
	c-5.962-2.094-12.367-3.241-19.042-3.241c-31.729,0-57.447,25.718-57.447,57.435c0,1.188,0.046,2.365,0.115,3.531
	c-24.022,1.408-43.082,21.333-43.082,45.724c0,19.51,12.207,36.159,29.387,42.759c-4.373,5.111-7.027,11.745-7.027,19.003
	c0,9.53,4.557,17.987,11.619,23.318c0.958-1.725,13.848-3.091,33.683-4.096C133.18,189.206,152.64,191.035,159.664,188.816z"/>
<g>
	<path style="fill:#E0B394;" d="M126.326,238.374c-14.307-0.635-25.695-12.438-25.695-26.895c0-14.861,12.045-26.918,26.918-26.918
		c1.338,0,2.654,0.092,3.946,0.288l18.362,29.879L126.326,238.374z"/>
	<path style="fill:#E0B394;" d="M369.565,238.374c14.307-0.635,25.706-12.438,25.706-26.895c0-14.861-12.057-26.918-26.929-26.918
		c-1.338,0-2.665,0.104-3.946,0.288l-21.858,31.079L369.565,238.374z"/>
</g>
<path style="fill:#E6E6E6;" d="M373.713,407.26V512H122.19V407.26c0-35.352,25.706-64.704,59.454-70.369
	c3.877-0.658,7.846-0.992,11.907-0.992h108.813c4.061,0,8.03,0.335,11.907,0.992C348.007,342.556,373.713,371.908,373.713,407.26z"
	/>
<g>
	<rect x="239.306" y="380.919" style="fill:#CCCCCC;" width="17.307" height="131.081"/>
	<path style="fill:#CCCCCC;" d="M314.27,336.891l-14.964,82.83l-51.355-30.714l-51.343,30.714l-14.964-82.83
		c3.877-0.658,7.846-0.992,11.907-0.992h108.813C306.425,335.899,310.394,336.234,314.27,336.891z"/>
</g>
<path style="fill:#E0B394;" d="M298.869,228.985v106.087c0,28.116-22.796,50.913-50.913,50.913
	c-28.124,0-50.913-22.796-50.913-50.913V215.141"/>
<path style="fill:#CCCCCC;" d="M237.515,335.902H193.55c-39.408,0-71.356,31.947-71.356,71.356V512h43.966V407.259
	C166.159,367.849,198.107,335.902,237.515,335.902z"/>
<path style="fill:#F7CBA4;" d="M209.011,354.726l-47.361-34.41c-25.028-18.184-38.567-48.253-35.592-79.046l8.215-85.008
	c5.658-58.548,54.859-103.224,113.679-103.224l0,0c58.821,0,108.021,44.675,113.679,103.224l8.215,85.008
	c2.976,30.793-10.563,60.862-35.592,79.046l-47.361,34.41C263.673,371.596,232.231,371.596,209.011,354.726z"/>
<path style="fill:#E8BA97;" d="M155.531,258.023c-0.796,13.465,3.588,26.71,12.265,37.036l49.5,60.827
	c2.584,3.081,5.515,5.665,8.688,7.73c-5.953-2.077-11.676-5.054-16.972-8.896l-47.363-34.406
	c-25.025-18.184-38.559-48.251-35.582-79.045l8.203-85.01c5.607-57.977,53.904-102.352,111.974-103.194
	c-35.767,0.865-76.268,34.579-78.38,70.484L155.531,258.023z"/>
<path style="fill:#E0B394;" d="M261.22,221.202v37.374c0,7.326-5.942,13.268-13.268,13.268c-3.657,0-6.98-1.488-9.38-3.888
	c-2.4-2.4-3.888-5.711-3.888-9.38v-39.763"/>
<path style="fill:#C0E7F9;" d="M354.283,210.807c0,29.664-23.999,53.512-53.662,53.535h-0.035c-4.869,0-9.588-0.646-14.065-1.869
	c-22.845-6.161-39.644-26.975-39.644-51.77c0,14.838-6.023,28.302-15.749,38.04c-9.738,9.761-23.179,15.795-38.017,15.795
	c-2.781,0-5.515-0.208-8.192-0.623c-11.572-1.765-21.922-7.211-29.837-15.114c-9.749-9.726-15.772-23.156-15.772-37.994
	c0-19.268,15.622-34.89,34.89-34.89h145.191c9.634,0,18.357,3.9,24.668,10.222C350.384,192.45,354.283,201.173,354.283,210.807z"/>
<path style="fill:#E6F6FC;" d="M318.412,175.916l-31.89,86.556c-22.845-6.161-39.644-26.975-39.644-51.77
	c0,14.838-6.023,28.302-15.749,38.04c-9.738,9.761-23.179,15.795-38.017,15.795c-2.781,0-5.515-0.208-8.192-0.623l32.421-87.999
	H318.412z"/>
<g>
	<path style="fill:#666666;" d="M196.59,233.023c-4.46,0-8.076-3.616-8.076-8.076v-13.841c0-4.46,3.616-8.076,8.076-8.076
		c4.461,0,8.076,3.616,8.076,8.076v13.841C204.666,229.407,201.05,233.023,196.59,233.023z"/>
	<path style="fill:#666666;" d="M299.314,233.023c-4.46,0-8.076-3.616-8.076-8.076v-13.841c0-4.46,3.616-8.076,8.076-8.076
		c4.461,0,8.076,3.616,8.076,8.076v13.841C307.39,229.407,303.774,233.023,299.314,233.023z"/>
</g>
<path style="fill:#F9C573;" d="M452.647,38.627H441.11V27.09c0-3.505-2.842-6.346-6.346-6.346c-3.504,0-6.346,2.841-6.346,6.346
	v11.538H416.88c-3.504,0-6.346,2.841-6.346,6.346s2.842,6.346,6.346,6.346h11.538v11.538c0,3.505,2.842,6.346,6.346,6.346
	c3.504,0,6.346-2.841,6.346-6.346V51.319h11.538c3.504,0,6.346-2.841,6.346-6.346S456.151,38.627,452.647,38.627z"/>
<path style="fill:#5D9EBA;" d="M194.264,270.311c-32.843,0-59.563-26.695-59.563-59.506c0-22.419,18.239-40.658,40.658-40.658
	h145.184c22.419,0,40.658,18.239,40.658,40.658c0,32.678-26.642,59.268-59.4,59.304c-0.006,0-0.012,0-0.021,0
	c-0.016,0-0.027,0-0.043,0c-0.007,0-0.014,0-0.021,0c-23.635-0.025-44.09-13.871-53.669-33.859
	C238.478,256.371,217.966,270.311,194.264,270.311z M175.36,181.684c-16.057,0-29.12,13.063-29.12,29.12
	c0,26.45,21.543,47.968,48.025,47.968c26.464,0,47.996-21.563,47.997-48.069c0-3.186,2.583-5.769,5.769-5.769l0,0
	c3.186,0,5.769,2.583,5.769,5.769c0,26.387,21.513,47.855,47.961,47.866c26.417-0.01,47.905-21.434,47.905-47.766
	c0-16.057-13.063-29.12-29.12-29.12H175.36V181.684z"/>
<g>
	<path style="fill:#E0B394;" d="M302.443,112.228c-0.79,0-1.591-0.203-2.323-0.63c-28.769-16.796-75.572-16.796-104.338,0
		c-2.201,1.284-5.027,0.542-6.312-1.659c-1.285-2.201-0.543-5.027,1.658-6.312c31.332-18.293,82.314-18.293,113.646,0
		c2.201,1.285,2.944,4.111,1.659,6.312C305.575,111.409,304.031,112.228,302.443,112.228z"/>
	<path style="fill:#E0B394;" d="M212.183,134.03c-1.975,0-3.803-1.277-4.411-3.265c-0.746-2.437,0.624-5.018,3.061-5.764
		c23.234-7.118,50.985-7.121,74.236-0.012c2.437,0.745,3.809,3.325,3.063,5.763c-0.745,2.437-3.323,3.81-5.763,3.064
		c-21.556-6.592-47.289-6.588-68.833,0.012C213.085,133.964,212.631,134.03,212.183,134.03z"/>
</g>
<path style="fill:#F76B4F;" d="M77.054,370.916v113.128c0,7.061-2.861,13.465-7.488,18.091c-4.627,4.627-11.019,7.488-18.091,7.488
	c-14.122,0-25.579-11.445-25.579-25.579V370.916L77.054,370.916L77.054,370.916z"/>
<rect x="281.603" y="448.415" style="fill:#CCCCCC;" width="54.608" height="17.307"/>
<path style="fill:#C0E7F9;" d="M55.093,323.216H23.937c-3.84,0-6.954-3.113-6.954-6.954v-18.044c0-3.84,3.113-6.954,6.954-6.954
	h55.081c3.84,0,6.954,3.113,6.954,6.954v18.044c0,3.84-3.113,6.954-6.954,6.954H68.995H55.093z"/>
<path style="fill:#B2DBEA;" d="M26.649,323.216h-2.711c-3.84,0-6.954-3.113-6.954-6.954v-18.044c0-3.84,3.113-6.954,6.954-6.954
	h10.542v31.95h-4.306h-3.525V323.216z"/>
<g>
	<path style="fill:#E5624C;" d="M40.894,484.044V370.916H25.895v113.128c0,14.134,11.457,25.579,25.579,25.579
		c2.612,0,5.131-0.392,7.503-1.118C48.512,505.301,40.894,495.568,40.894,484.044z"/>
	<circle style="fill:#E5624C;" cx="61.59" cy="398.226" r="6.346"/>
</g>
<circle style="fill:#C0E7F9;" cx="60.436" cy="158.817" r="6.346"/>
<circle style="fill:#83A538;" cx="460.22" cy="408.61" r="6.346"/>
<g>
	<circle style="fill:#B2DBEA;" cx="434.837" cy="364.19" r="6.346"/>
	<circle style="fill:#B2DBEA;" cx="440.605" cy="154.779" r="6.346"/>
</g>
<g>
	<circle style="fill:#808080;" cx="224.272" cy="439.185" r="6.346"/>
	<circle style="fill:#808080;" cx="224.272" cy="476.244" r="6.346"/>
</g>
<g>
	<circle style="fill:#83A538;" cx="473.488" cy="429.955" r="6.346"/>
	<circle style="fill:#83A538;" cx="434.26" cy="440.339" r="6.346"/>
</g>
<g>
	<circle style="fill:#E5624C;" cx="63.324" cy="474.375" r="6.346"/>
	<circle style="fill:#E5624C;" cx="51.786" cy="416.686" r="6.346"/>
</g>
<path style="fill:#C0E7F9;" d="M456.892,250.373h-48.927c-4.151,0-7.518,3.366-7.518,7.518v11.745c0,4.151,3.366,7.518,7.518,7.518
	h48.927c4.151,0,7.518-3.366,7.518-7.518v-11.745C464.409,253.739,461.043,250.373,456.892,250.373z"/>
<path style="fill:#B2DBEA;" d="M416.641,250.373h-8.676c-4.151,0-7.518,3.366-7.518,7.518v11.745c0,4.151,3.366,7.518,7.518,7.518
	h8.676V250.373z"/>
<path style="fill:#F2F2F2;" d="M293.116,285.952c0,0-0.658,1.615-2.042,4.165c-0.335,0.658-0.727,1.35-1.165,2.1
	c-0.519,0.738-1.119,1.488-1.765,2.331c-0.646,0.842-1.385,1.696-2.169,2.642c-0.277,0.358-0.577,0.658-0.9,0.969
	c-0.115,0.115-0.242,0.231-0.369,0.346c-0.45,0.415-0.911,0.854-1.385,1.292c-0.946,0.888-1.973,1.765-3.046,2.688
	c-1.131,0.831-2.342,1.615-3.588,2.469c-0.623,0.427-1.269,0.842-1.927,1.258c-0.658,0.392-1.361,0.715-2.077,1.073
	c-1.408,0.715-2.873,1.408-4.384,2.1c-3.115,1.061-6.357,2.308-9.819,2.827c-3.415,0.796-6.98,0.923-10.534,1.096
	c-3.554-0.173-7.119-0.288-10.534-1.085c-3.461-0.519-6.703-1.765-9.819-2.827c-1.511-0.681-2.977-1.373-4.396-2.088
	c-0.704-0.358-1.408-0.681-2.077-1.073c-0.646-0.427-1.292-0.831-1.915-1.258c-1.246-0.854-2.469-1.65-3.6-2.469
	c-1.073-0.923-2.088-1.811-3.046-2.688c-0.473-0.45-0.923-0.877-1.373-1.304c-0.162-0.15-0.323-0.3-0.485-0.45
	c-0.277-0.277-0.542-0.542-0.773-0.854c-0.75-0.911-1.477-1.754-2.111-2.584c-0.623-0.842-1.235-1.581-1.742-2.319
	c-0.462-0.785-0.888-1.5-1.246-2.158c-1.442-2.631-2.042-4.2-2.042-4.2s1.708,0.519,4.338,1.581
	c0.669,0.254,1.361,0.565,2.134,0.877c0.819,0.242,1.661,0.554,2.561,0.854c0.911,0.3,1.823,0.669,2.792,1.015
	c0.958,0.369,2.042,0.611,3.115,0.935c1.073,0.312,2.146,0.692,3.265,1.027c1.165,0.254,2.331,0.554,3.531,0.842
	c0.6,0.138,1.188,0.312,1.788,0.473c0.612,0.138,1.246,0.219,1.869,0.346c1.258,0.219,2.515,0.473,3.773,0.761
	c2.619,0.242,5.204,0.819,7.903,0.923c2.665,0.346,5.388,0.254,8.088,0.415c2.711-0.162,5.434-0.058,8.1-0.404
	c2.7-0.092,5.284-0.681,7.903-0.923c1.258-0.277,2.515-0.531,3.773-0.75c0.623-0.127,1.258-0.208,1.869-0.346
	c0.6-0.173,1.2-0.335,1.788-0.473c1.2-0.288,2.365-0.6,3.531-0.842c1.131-0.335,2.204-0.715,3.277-1.027
	c1.061-0.323,2.169-0.577,3.092-0.935c0.946-0.323,1.835-0.681,2.734-0.958c0.888-0.3,1.719-0.6,2.538-0.842
	c0.808-0.346,1.523-0.681,2.204-0.946C291.443,286.437,293.116,285.952,293.116,285.952z"/>
<path style="fill:#4D4D4D;" d="M285.074,298.159c-0.115,0.115-0.242,0.231-0.369,0.346c-0.45,0.415-0.911,0.854-1.385,1.292
	c-0.946,0.888-1.973,1.765-3.046,2.688c-1.131,0.831-2.342,1.615-3.588,2.469c-0.623,0.427-1.269,0.842-1.927,1.258
	c-0.658,0.392-1.361,0.715-2.077,1.073c-1.408,0.715-2.873,1.408-4.384,2.1c-3.115,1.061-6.357,2.308-9.819,2.827
	c-3.415,0.796-6.98,0.923-10.534,1.096c-3.554-0.173-7.119-0.288-10.534-1.085c-3.461-0.519-6.703-1.765-9.819-2.827
	c-1.511-0.681-2.977-1.373-4.396-2.088c-0.704-0.358-1.408-0.681-2.077-1.073c-0.646-0.427-1.292-0.831-1.915-1.258
	c-1.246-0.854-2.469-1.65-3.6-2.469c-1.073-0.923-2.088-1.811-3.046-2.688c-0.473-0.45-0.923-0.877-1.373-1.304
	c-0.162-0.15-0.323-0.3-0.485-0.45c0.369,0.127,0.738,0.254,1.119,0.381c0.911,0.3,1.823,0.658,2.792,1.004
	c0.958,0.381,2.042,0.623,3.115,0.946c1.073,0.311,2.146,0.681,3.265,1.027c1.165,0.242,2.331,0.554,3.531,0.842
	c0.6,0.138,1.188,0.3,1.788,0.462c0.612,0.138,1.246,0.219,1.869,0.346c1.258,0.219,2.515,0.485,3.773,0.762
	c2.619,0.254,5.204,0.831,7.903,0.923c2.665,0.358,5.388,0.254,8.088,0.427c2.711-0.162,5.434-0.058,8.1-0.415
	c2.7-0.092,5.284-0.669,7.903-0.911c1.258-0.277,2.515-0.542,3.773-0.762c0.623-0.127,1.258-0.208,1.869-0.346
	c0.6-0.162,1.2-0.323,1.788-0.461c1.2-0.288,2.365-0.6,3.531-0.842c1.131-0.346,2.204-0.727,3.277-1.027
	c1.061-0.323,2.169-0.588,3.092-0.935c0.946-0.335,1.835-0.681,2.734-0.969C284.37,298.401,284.728,298.274,285.074,298.159z"/>
<g>
</g>
<g>
</g>
<g>
</g>
<g>
</g>
<g>
</g>
<g>
</g>
<g>
</g>
<g>
</g>
<g>
</g>
<g>
</g>
<g>
</g>
<g>
</g>
<g>
</g>
<g>
</g>
<g>
</g>
</svg>
